<?xml version="1.0" standalone="no"?>
<!DOCTYPE svg PUBLIC "-//W3C//DTD SVG 20010904//EN"
 "http://www.w3.org/TR/2001/REC-SVG-20010904/DTD/svg10.dtd">
<svg version="1.0" xmlns="http://www.w3.org/2000/svg"
 width="2560.000000pt" height="1064.000000pt" viewBox="0 0 2560.000000 1064.000000"
 preserveAspectRatio="xMidYMid meet">

<g transform="translate(0.000000,1064.000000) scale(0.100000,-0.100000)"
fill="#c41230" stroke="none">
<path d="M15 10583 c7 -32 561 -2423 1230 -5313 669 -2890 1219 -5257 1221
-5260 3 -2 13 1 22 7 1987 1285 4183 1756 6497 1393 1265 -199 2625 -685 3682
-1316 l143 -85 122 74 c574 347 1370 705 2083 937 836 271 1649 429 2525 492
225 16 944 16 1165 0 1116 -81 2088 -323 3092 -768 352 -156 867 -432 1196
-640 81 -52 151 -94 155 -94 9 0 2453 10567 2453 10603 l-1 27 -790 0 -790 0
16 -37 c117 -267 160 -491 151 -788 -6 -193 -24 -309 -74 -475 -36 -122 -127
-321 -195 -430 -196 -310 -491 -561 -811 -688 -221 -88 -379 -121 -613 -129
-311 -11 -573 43 -839 172 -512 248 -863 713 -972 1288 -25 130 -25 503 0 634
23 120 67 268 111 371 l35 82 -10413 0 -10414 0 13 -57z"/>
<path d="M21148 10593 c-103 -192 -167 -467 -168 -713 0 -425 147 -809 419
-1092 209 -218 448 -350 751 -415 122 -26 440 -25 560 1 437 95 797 374 994
772 215 435 221 979 16 1410 l-41 84 -249 0 -249 0 21 -47 c35 -80 48 -143 54
-258 10 -181 -35 -313 -141 -420 -76 -76 -224 -146 -343 -163 -26 -4 -47 -10
-47 -13 0 -4 415 -658 563 -886 l14 -23 -173 0 -174 0 -275 443 -275 442 -168
3 -167 2 0 -445 0 -445 -165 0 -165 0 0 905 0 905 -283 0 -284 0 -25 -47z"/>
<path d="M22065 10627 c-3 -7 -4 -154 -3 -327 l3 -315 265 2 c145 1 293 7 329
13 187 33 276 138 274 327 -2 174 -94 272 -283 302 -97 16 -579 14 -585 -2z"/>
</g>
</svg>
